<?xml version="1.0" encoding="UTF-8" standalone="no"?>
<!DOCTYPE svg PUBLIC "-//W3C//DTD SVG 1.1//EN"
 "http://www.w3.org/Graphics/SVG/1.1/DTD/svg11.dtd">
<!-- Generated by graphviz version 2.43.0 (0)
 -->
<!-- Title: snakemake_dag Pages: 1 -->
<svg width="670pt" height="620pt"
 viewBox="0.00 0.00 669.50 620.00" xmlns="http://www.w3.org/2000/svg" xmlns:xlink="http://www.w3.org/1999/xlink">
<g id="graph0" class="graph" transform="scale(1 1) rotate(0) translate(4 616)">
<title>snakemake_dag</title>
<polygon fill="white" stroke="transparent" points="-4,4 -4,-616 665.5,-616 665.5,4 -4,4"/>
<!-- 0 -->
<g id="node1" class="node">
<title>0</title>
<path fill="none" stroke="#d8bc56" stroke-width="2" d="M300.5,-36C300.5,-36 270.5,-36 270.5,-36 264.5,-36 258.5,-30 258.5,-24 258.5,-24 258.5,-12 258.5,-12 258.5,-6 264.5,0 270.5,0 270.5,0 300.5,0 300.5,0 306.5,0 312.5,-6 312.5,-12 312.5,-12 312.5,-24 312.5,-24 312.5,-30 306.5,-36 300.5,-36"/>
<text text-anchor="middle" x="285.5" y="-15.5" font-family="sans" font-size="10.00">all</text>
</g>
<!-- 1 -->
<g id="node2" class="node">
<title>1</title>
<path fill="none" stroke="#afd856" stroke-width="2" d="M301.5,-108C301.5,-108 269.5,-108 269.5,-108 263.5,-108 257.5,-102 257.5,-96 257.5,-96 257.5,-84 257.5,-84 257.5,-78 263.5,-72 269.5,-72 269.5,-72 301.5,-72 301.5,-72 307.5,-72 313.5,-78 313.5,-84 313.5,-84 313.5,-96 313.5,-96 313.5,-102 307.5,-108 301.5,-108"/>
<text text-anchor="middle" x="285.5" y="-87.5" font-family="sans" font-size="10.00">MultiQC</text>
</g>
<!-- 1&#45;&gt;0 -->
<g id="edge1" class="edge">
<title>1&#45;&gt;0</title>
<path fill="none" stroke="grey" stroke-width="2" d="M285.5,-71.7C285.5,-63.98 285.5,-54.71 285.5,-46.11"/>
<polygon fill="grey" stroke="grey" stroke-width="2" points="289,-46.1 285.5,-36.1 282,-46.1 289,-46.1"/>
</g>
<!-- 2 -->
<g id="node3" class="node">
<title>2</title>
<path fill="none" stroke="#569ad8" stroke-width="2" d="M487,-324C487,-324 434,-324 434,-324 428,-324 422,-318 422,-312 422,-312 422,-300 422,-300 422,-294 428,-288 434,-288 434,-288 487,-288 487,-288 493,-288 499,-294 499,-300 499,-300 499,-312 499,-312 499,-318 493,-324 487,-324"/>
<text text-anchor="middle" x="460.5" y="-303.5" font-family="sans" font-size="10.00">fastqc_short</text>
</g>
<!-- 2&#45;&gt;1 -->
<g id="edge2" class="edge">
<title>2&#45;&gt;1</title>
<path fill="none" stroke="grey" stroke-width="2" d="M452.5,-287.92C437.28,-256.69 401.69,-189.43 357.5,-144 346.87,-133.08 333.81,-122.74 321.74,-114.14"/>
<polygon fill="grey" stroke="grey" stroke-width="2" points="323.39,-111.03 313.18,-108.21 319.4,-116.78 323.39,-111.03"/>
</g>
<!-- 3 -->
<g id="node4" class="node">
<title>3</title>
<path fill="none" stroke="#68d856" stroke-width="2" d="M649.5,-540C649.5,-540 137.5,-540 137.5,-540 131.5,-540 125.5,-534 125.5,-528 125.5,-528 125.5,-516 125.5,-516 125.5,-510 131.5,-504 137.5,-504 137.5,-504 649.5,-504 649.5,-504 655.5,-504 661.5,-510 661.5,-516 661.5,-516 661.5,-528 661.5,-528 661.5,-534 655.5,-540 649.5,-540"/>
<text text-anchor="middle" x="393.5" y="-525" font-family="sans" font-size="10.00">short_read_trimming</text>
<text text-anchor="middle" x="393.5" y="-514" font-family="sans" font-size="10.00">outdir: /lustre/nobackup/WUR/ABGC/hoger006/Data/Dutch_better_Belted/bovine_assembly_pipeline/results</text>
</g>
<!-- 3&#45;&gt;2 -->
<g id="edge6" class="edge">
<title>3&#45;&gt;2</title>
<path fill="none" stroke="grey" stroke-width="2" d="M398.87,-503.85C410.51,-466.68 438.13,-378.44 452.1,-333.82"/>
<polygon fill="grey" stroke="grey" stroke-width="2" points="455.46,-334.82 455.1,-324.23 448.78,-332.73 455.46,-334.82"/>
</g>
<!-- 6 -->
<g id="node7" class="node">
<title>6</title>
<path fill="none" stroke="#d89c56" stroke-width="2" d="M285.5,-468C285.5,-468 211.5,-468 211.5,-468 205.5,-468 199.5,-462 199.5,-456 199.5,-456 199.5,-444 199.5,-444 199.5,-438 205.5,-432 211.5,-432 211.5,-432 285.5,-432 285.5,-432 291.5,-432 297.5,-438 297.5,-444 297.5,-444 297.5,-456 297.5,-456 297.5,-462 291.5,-468 285.5,-468"/>
<text text-anchor="middle" x="248.5" y="-447.5" font-family="sans" font-size="10.00">filter_long_reads</text>
</g>
<!-- 3&#45;&gt;6 -->
<g id="edge10" class="edge">
<title>3&#45;&gt;6</title>
<path fill="none" stroke="grey" stroke-width="2" d="M358.03,-503.88C338.38,-494.39 313.78,-482.51 292.87,-472.42"/>
<polygon fill="grey" stroke="grey" stroke-width="2" points="294.38,-469.26 283.86,-468.07 291.34,-475.57 294.38,-469.26"/>
</g>
<!-- 10 -->
<g id="node11" class="node">
<title>10</title>
<path fill="none" stroke="#d85656" stroke-width="2" d="M275,-324C275,-324 238,-324 238,-324 232,-324 226,-318 226,-312 226,-312 226,-300 226,-300 226,-294 232,-288 238,-288 238,-288 275,-288 275,-288 281,-288 287,-294 287,-300 287,-300 287,-312 287,-312 287,-318 281,-324 275,-324"/>
<text text-anchor="middle" x="256.5" y="-303.5" font-family="sans" font-size="10.00">polishing</text>
</g>
<!-- 3&#45;&gt;10 -->
<g id="edge14" class="edge">
<title>3&#45;&gt;10</title>
<path fill="none" stroke="grey" stroke-width="2" d="M382.52,-503.85C358.52,-466.36 301.28,-376.95 272.95,-332.7"/>
<polygon fill="grey" stroke="grey" stroke-width="2" points="275.87,-330.77 267.53,-324.23 269.98,-334.54 275.87,-330.77"/>
</g>
<!-- 12 -->
<g id="node13" class="node">
<title>12</title>
<path fill="none" stroke="#56d8d0" stroke-width="2" d="M336.5,-180C336.5,-180 306.5,-180 306.5,-180 300.5,-180 294.5,-174 294.5,-168 294.5,-168 294.5,-156 294.5,-156 294.5,-150 300.5,-144 306.5,-144 306.5,-144 336.5,-144 336.5,-144 342.5,-144 348.5,-150 348.5,-156 348.5,-156 348.5,-168 348.5,-168 348.5,-174 342.5,-180 336.5,-180"/>
<text text-anchor="middle" x="321.5" y="-159.5" font-family="sans" font-size="10.00">quast</text>
</g>
<!-- 3&#45;&gt;12 -->
<g id="edge19" class="edge">
<title>3&#45;&gt;12</title>
<path fill="none" stroke="grey" stroke-width="2" d="M393.5,-503.95C393.5,-477.29 393.5,-424.11 393.5,-379 393.5,-379 393.5,-379 393.5,-305 393.5,-260.35 364.84,-215.52 343.68,-188.51"/>
<polygon fill="grey" stroke="grey" stroke-width="2" points="346.13,-185.96 337.12,-180.38 340.68,-190.36 346.13,-185.96"/>
</g>
<!-- 4 -->
<g id="node5" class="node">
<title>4</title>
<path fill="none" stroke="#567bd8" stroke-width="2" d="M436.5,-612C436.5,-612 350.5,-612 350.5,-612 344.5,-612 338.5,-606 338.5,-600 338.5,-600 338.5,-588 338.5,-588 338.5,-582 344.5,-576 350.5,-576 350.5,-576 436.5,-576 436.5,-576 442.5,-576 448.5,-582 448.5,-588 448.5,-588 448.5,-600 448.5,-600 448.5,-606 442.5,-612 436.5,-612"/>
<text text-anchor="middle" x="393.5" y="-591.5" font-family="sans" font-size="10.00">merge_short_reads</text>
</g>
<!-- 4&#45;&gt;3 -->
<g id="edge7" class="edge">
<title>4&#45;&gt;3</title>
<path fill="none" stroke="grey" stroke-width="2" d="M393.5,-575.7C393.5,-567.98 393.5,-558.71 393.5,-550.11"/>
<polygon fill="grey" stroke="grey" stroke-width="2" points="397,-550.1 393.5,-540.1 390,-550.1 397,-550.1"/>
</g>
<!-- 5 -->
<g id="node6" class="node">
<title>5</title>
<path fill="none" stroke="#ced856" stroke-width="2" d="M187,-252C187,-252 138,-252 138,-252 132,-252 126,-246 126,-240 126,-240 126,-228 126,-228 126,-222 132,-216 138,-216 138,-216 187,-216 187,-216 193,-216 199,-222 199,-228 199,-228 199,-240 199,-240 199,-246 193,-252 187,-252"/>
<text text-anchor="middle" x="162.5" y="-231.5" font-family="sans" font-size="10.00">fastqc_long</text>
</g>
<!-- 5&#45;&gt;1 -->
<g id="edge3" class="edge">
<title>5&#45;&gt;1</title>
<path fill="none" stroke="grey" stroke-width="2" d="M169.68,-215.91C178.22,-196.93 193.82,-166.06 213.5,-144 223.74,-132.52 236.85,-121.98 249.06,-113.38"/>
<polygon fill="grey" stroke="grey" stroke-width="2" points="251.04,-116.27 257.33,-107.75 247.1,-110.48 251.04,-116.27"/>
</g>
<!-- 6&#45;&gt;5 -->
<g id="edge8" class="edge">
<title>6&#45;&gt;5</title>
<path fill="none" stroke="grey" stroke-width="2" d="M215.26,-431.93C201.55,-423.11 186.92,-411.03 178.5,-396 154.95,-353.99 155.77,-296.04 158.88,-262.34"/>
<polygon fill="grey" stroke="grey" stroke-width="2" points="162.37,-262.62 159.94,-252.3 155.41,-261.88 162.37,-262.62"/>
</g>
<!-- 6&#45;&gt;10 -->
<g id="edge13" class="edge">
<title>6&#45;&gt;10</title>
<path fill="none" stroke="grey" stroke-width="2" d="M253.37,-431.98C256.06,-421.67 259.14,-408.19 260.5,-396 262.81,-375.38 261.6,-351.93 259.92,-334.28"/>
<polygon fill="grey" stroke="grey" stroke-width="2" points="263.38,-333.69 258.85,-324.11 256.42,-334.43 263.38,-333.69"/>
</g>
<!-- 11 -->
<g id="node12" class="node">
<title>11</title>
<path fill="none" stroke="#56d8a9" stroke-width="2" d="M239.5,-396C239.5,-396 199.5,-396 199.5,-396 193.5,-396 187.5,-390 187.5,-384 187.5,-384 187.5,-372 187.5,-372 187.5,-366 193.5,-360 199.5,-360 199.5,-360 239.5,-360 239.5,-360 245.5,-360 251.5,-366 251.5,-372 251.5,-372 251.5,-384 251.5,-384 251.5,-390 245.5,-396 239.5,-396"/>
<text text-anchor="middle" x="219.5" y="-375.5" font-family="sans" font-size="10.00">assembly</text>
</g>
<!-- 6&#45;&gt;11 -->
<g id="edge16" class="edge">
<title>6&#45;&gt;11</title>
<path fill="none" stroke="grey" stroke-width="2" d="M241.33,-431.7C238.07,-423.81 234.13,-414.3 230.5,-405.55"/>
<polygon fill="grey" stroke="grey" stroke-width="2" points="233.65,-404 226.59,-396.1 227.18,-406.68 233.65,-404"/>
</g>
<!-- 6&#45;&gt;12 -->
<g id="edge18" class="edge">
<title>6&#45;&gt;12</title>
<path fill="none" stroke="grey" stroke-width="2" d="M257.88,-431.65C263.18,-421.45 269.68,-408.2 274.5,-396 302.59,-324.91 314.64,-234.72 319.15,-190.28"/>
<polygon fill="grey" stroke="grey" stroke-width="2" points="322.64,-190.55 320.12,-180.26 315.67,-189.87 322.64,-190.55"/>
</g>
<!-- 7 -->
<g id="node8" class="node">
<title>7</title>
<path fill="none" stroke="#56d86b" stroke-width="2" d="M95,-540C95,-540 12,-540 12,-540 6,-540 0,-534 0,-528 0,-528 0,-516 0,-516 0,-510 6,-504 12,-504 12,-504 95,-504 95,-504 101,-504 107,-510 107,-516 107,-516 107,-528 107,-528 107,-534 101,-540 95,-540"/>
<text text-anchor="middle" x="53.5" y="-519.5" font-family="sans" font-size="10.00">merge_long_reads</text>
</g>
<!-- 7&#45;&gt;6 -->
<g id="edge9" class="edge">
<title>7&#45;&gt;6</title>
<path fill="none" stroke="grey" stroke-width="2" d="M101.2,-503.88C128.45,-494.09 162.8,-481.77 191.47,-471.47"/>
<polygon fill="grey" stroke="grey" stroke-width="2" points="192.72,-474.74 200.95,-468.07 190.36,-468.15 192.72,-474.74"/>
</g>
<!-- 8 -->
<g id="node9" class="node">
<title>8</title>
<path fill="none" stroke="#56c1d8" stroke-width="2" d="M264.5,-180C264.5,-180 234.5,-180 234.5,-180 228.5,-180 222.5,-174 222.5,-168 222.5,-168 222.5,-156 222.5,-156 222.5,-150 228.5,-144 234.5,-144 234.5,-144 264.5,-144 264.5,-144 270.5,-144 276.5,-150 276.5,-156 276.5,-156 276.5,-168 276.5,-168 276.5,-174 270.5,-180 264.5,-180"/>
<text text-anchor="middle" x="249.5" y="-159.5" font-family="sans" font-size="10.00">busco</text>
</g>
<!-- 8&#45;&gt;1 -->
<g id="edge4" class="edge">
<title>8&#45;&gt;1</title>
<path fill="none" stroke="grey" stroke-width="2" d="M258.4,-143.7C262.5,-135.73 267.45,-126.1 271.99,-117.26"/>
<polygon fill="grey" stroke="grey" stroke-width="2" points="275.24,-118.6 276.7,-108.1 269.02,-115.4 275.24,-118.6"/>
</g>
<!-- 9 -->
<g id="node10" class="node">
<title>9</title>
<path fill="none" stroke="#88d856" stroke-width="2" d="M277.5,-252C277.5,-252 231.5,-252 231.5,-252 225.5,-252 219.5,-246 219.5,-240 219.5,-240 219.5,-228 219.5,-228 219.5,-222 225.5,-216 231.5,-216 231.5,-216 277.5,-216 277.5,-216 283.5,-216 289.5,-222 289.5,-228 289.5,-228 289.5,-240 289.5,-240 289.5,-246 283.5,-252 277.5,-252"/>
<text text-anchor="middle" x="254.5" y="-231.5" font-family="sans" font-size="10.00">scaffolding</text>
</g>
<!-- 9&#45;&gt;8 -->
<g id="edge11" class="edge">
<title>9&#45;&gt;8</title>
<path fill="none" stroke="grey" stroke-width="2" d="M253.26,-215.7C252.71,-207.98 252.05,-198.71 251.44,-190.11"/>
<polygon fill="grey" stroke="grey" stroke-width="2" points="254.93,-189.83 250.72,-180.1 247.94,-190.33 254.93,-189.83"/>
</g>
<!-- 9&#45;&gt;12 -->
<g id="edge17" class="edge">
<title>9&#45;&gt;12</title>
<path fill="none" stroke="grey" stroke-width="2" d="M271.06,-215.7C279.18,-207.22 289.09,-196.86 297.97,-187.58"/>
<polygon fill="grey" stroke="grey" stroke-width="2" points="300.74,-189.75 305.13,-180.1 295.69,-184.91 300.74,-189.75"/>
</g>
<!-- 10&#45;&gt;9 -->
<g id="edge12" class="edge">
<title>10&#45;&gt;9</title>
<path fill="none" stroke="grey" stroke-width="2" d="M256.01,-287.7C255.79,-279.98 255.52,-270.71 255.27,-262.11"/>
<polygon fill="grey" stroke="grey" stroke-width="2" points="258.77,-262 254.99,-252.1 251.78,-262.2 258.77,-262"/>
</g>
<!-- 11&#45;&gt;10 -->
<g id="edge15" class="edge">
<title>11&#45;&gt;10</title>
<path fill="none" stroke="grey" stroke-width="2" d="M228.65,-359.7C232.9,-351.64 238.06,-341.89 242.77,-332.98"/>
<polygon fill="grey" stroke="grey" stroke-width="2" points="245.88,-334.58 247.46,-324.1 239.69,-331.31 245.88,-334.58"/>
</g>
<!-- 12&#45;&gt;1 -->
<g id="edge5" class="edge">
<title>12&#45;&gt;1</title>
<path fill="none" stroke="grey" stroke-width="2" d="M312.6,-143.7C308.5,-135.73 303.55,-126.1 299.01,-117.26"/>
<polygon fill="grey" stroke="grey" stroke-width="2" points="301.98,-115.4 294.3,-108.1 295.76,-118.6 301.98,-115.4"/>
</g>
</g>
</svg>
